<?xml version="1.0" standalone="no"?>
<!DOCTYPE svg PUBLIC "-//W3C//DTD SVG 20010904//EN"
 "http://www.w3.org/TR/2001/REC-SVG-20010904/DTD/svg10.dtd">
<svg version="1.0" xmlns="http://www.w3.org/2000/svg"
 width="260.000000pt" height="260.000000pt" viewBox="0 0 260.000000 260.000000"
 preserveAspectRatio="xMidYMid meet">
<metadata>
Created by potrace 1.11, written by Peter Selinger 2001-2013
</metadata>
<g transform="translate(0.000000,260.000000) scale(0.100000,-0.100000)"
fill="#000000" stroke="none">
<path d="M300 2584 c-30 -8 -57 -19 -58 -24 -2 -6 -7 -8 -12 -5 -5 3 -16 -2
-24 -11 -9 -8 -16 -13 -16 -9 0 8 -22 -10 -75 -63 -40 -40 -86 -118 -103 -174
-12 -40 -14 -1917 -2 -1973 25 -118 111 -229 216 -280 30 -15 61 -28 69 -29 8
-1 17 -5 21 -9 11 -11 1952 -9 1959 3 3 6 10 8 15 5 4 -3 25 3 46 12 22 9 41
17 44 18 13 2 68 44 101 76 39 39 96 131 102 164 1 11 6 25 10 32 12 18 4
1983 -8 1991 -5 4 -11 14 -13 22 -6 35 -49 105 -89 147 -24 24 -43 41 -43 36
0 -4 -4 -3 -8 3 -8 13 -79 54 -102 59 -8 2 -30 9 -49 14 -23 7 -356 10 -980
10 -802 0 -954 -2 -1001 -15z"/>
</g>
</svg>
